# xmcd
#
# Track frame offsets: 
#        150
#        23621
#        36445
#        50853
#        73722
#        91446
#        114562
#        132631
#
# Disc length: 2082 seconds
#
# Revision: 0
# Processed by: cddbd v1.5.2PL0 Copyright (c) Steve Scherf et al.
# Submitted via: ExactAudioCopy v1.0b1
#
DISCID=75082008
DTITLE=Robert - Live At The Harlem Jazz Club
DYEAR=1900
DGENRE=Blues
TTITLE0=Mystery Train
TTITLE1=Money Takin' Woman
TTITLE2=Sittin' On Top Of The World
TTITLE3=Key To The Highway
TTITLE4=That's Alright Mama
TTITLE5=Canned Heat Blues
TTITLE6=Mobile Line
TTITLE7=Roots Woman
EXTD=
EXTT0=
EXTT1=
EXTT2=
EXTT3=
EXTT4=
EXTT5=
EXTT6=
EXTT7=
PLAYORDER=
